<?xml version="1.0" encoding="UTF-8"?>
<!DOCTYPE svg PUBLIC "-//W3C//DTD SVG 1.1//EN" "http://www.w3.org/Graphics/SVG/1.1/DTD/svg11.dtd">
<!-- Creator: CorelDRAW 2020 (64-Bit) -->
<svg xmlns="http://www.w3.org/2000/svg" xml:space="preserve" width="26.4582mm" height="26.4582mm" version="1.1" style="shape-rendering:geometricPrecision; text-rendering:geometricPrecision; image-rendering:optimizeQuality; fill-rule:evenodd; clip-rule:evenodd"
viewBox="0 0 2645.82 2645.82"
 xmlns:xlink="http://www.w3.org/1999/xlink"
 xmlns:xodm="http://www.corel.com/coreldraw/odm/2003">
 <defs>
  <style type="text/css">
   <![CDATA[
    .str0 {stroke:#CCCCCC;stroke-width:7.62;stroke-linecap:square;stroke-miterlimit:22.9256}
    .fil2 {fill:none}
    .fil0 {fill:#E1D5E7}
    .fil1 {fill:white}
    .fil3 {fill:gray;fill-rule:nonzero}
    .fil5 {fill:#84A34B;fill-rule:nonzero}
    .fil4 {fill:white;fill-rule:nonzero}
   ]]>
  </style>
 </defs>
 <g id="Слой_x0020_1">
  <metadata id="CorelCorpID_0Corel-Layer"/>
  <rect class="fil0" x="109.21" y="116.69" width="2416.57" height="2428.08" rx="331.41" ry="331.41"/>
  <path class="fil1" d="M379.4 31.92l1876.2 0c195.01,0 354.55,159.55 354.55,354.56l0 1888.52c0,195 -159.54,354.54 -354.55,354.54l-1876.2 0c-195.01,0 -354.55,-159.54 -354.55,-354.54l0 -1888.52c0,-195.01 159.54,-354.56 354.55,-354.56zm61.22 84.78l1753.75 0c182.28,0 331.41,149.13 331.41,331.4l0 1765.27c0,182.28 -149.13,331.41 -331.41,331.41l-1753.75 0c-182.28,0 -331.41,-149.13 -331.41,-331.41l0 -1765.27c0,-182.27 149.13,-331.4 331.41,-331.4z"/>
  <path class="fil1" d="M1505.69 357.4c218.89,42.34 373.76,172.02 465.08,388.69 82.59,196.72 96.57,435.38 42.29,716.04 -62.18,321.4 -185.05,557.63 -368.96,708.12 -154.26,125.55 -326.22,170.2 -514.94,133.7 -218.92,-42.35 -373.71,-172.45 -464.87,-389.98 -82.59,-196.72 -96.65,-434.95 -42.52,-714.76 62.17,-321.4 185.93,-557.9 371.53,-708.98 154.12,-124.65 325.19,-169.04 512.39,-132.83z"/>
  <path class="fil2 str0" d="M1249.16 484.4l0 -7.66m-352.33 444.23l-7.67 0m758.27 53.62c31.45,-6.62 21.72,-1.6 38.3,-22.98 -24.46,-9.7 -7.31,-6.99 -38.3,-7.66m-130.2 22.97l-7.67 0m-91.9 15.34l7.67 -7.67m130.2 15.33l0 -7.66m-84.25 61.26l0 -15.32m222.1 76.6l-7.65 -15.32m15.31 0l-15.31 0 -22.98 0m-84.24 53.61c-13.43,-11.33 -16.75,-14.12 -30.64,-22.98m-635.71 30.64l-15.33 0m53.62 91.92l-7.67 0m903.79 291.03c30.84,-13.03 19.23,-5.95 45.96,-30.62m-597.42 130.19l0 -30.62m137.86 22.98l0 -7.67m482.53 -84.26l3.69 0.01m-938.11 99.56l-15.32 0m505.52 7.66l-15.32 -7.66m-206.8 7.66l-15.33 0m160.85 30.65c25.21,-1.98 14.72,0.14 38.29,-7.66m252.76 61.27c22.08,-30.32 12.23,1.02 15.31,-38.31m-15.31 0l15.31 0c0.67,-30.1 -1.1,-18.89 7.67,-45.95m-176.17 91.92l7.66 -15.31m-681.66 30.64l-7.67 0m256.71 367.09l-7.66 0m-229.79 -130.2l-7.65 0m712.32 -436.58c-31.49,-23.58 -19.1,0.16 -22.98,-38.29m99.57 -30.64l0 7.66m-53.62 -99.57c0,-25.68 -2.23,-7.1 7.66,-22.97m15.32 -7.66l-15.32 7.66m-206.8 199.15c-1.07,-49.39 -22.43,-99.84 -7.66,-137.89l206.8 -38.29c21.14,31.16 4.74,22.07 45.96,22.98 -13.91,-42.88 4.54,-42.51 -22.98,-53.61m-674.01 -160.85c4.71,-19.21 10.8,-11.12 -7.65,-15.32m842.5 -153.19c8.49,-17.65 7.65,-3.3 7.65,-30.62m-91.89 7.66l0 -7.66m-513.17 45.95c-1.4,-18.18 -4.45,-28.93 -7.67,-45.95m390.62 -68.94l0 -45.96m-61.27 53.63c9.89,-34.38 13.09,-19.26 22.98,-53.63m-255.02 1396.88l2.26 -2.89m123.55 -17.86c3.73,-6.84 -0.04,-4.94 -14.54,4.21m-24.49 5.97c-0.77,-0.57 0.49,-2.4 -7.92,-7.64m-237.45 -7.66l0 7.77m38.31 -15.44c-23.18,9.19 -7.72,7.67 -38.31,7.67 -7.43,-22.93 -6.62,-31.26 -15.31,-53.62m176.16 61.28c-25.17,-25.18 -60.16,-48.42 -68.94,-76.59m130.22 -15.34c-23.19,-9.19 -7.71,-7.65 -38.29,-7.65 -28.2,9.14 -40.73,6.18 -68.94,15.33m222.12 15.3c25.54,-27.7 14.81,-8.26 22.97,-38.29m-45.95 76.61c-32.45,42.23 -8.83,22.01 -53.62,-7.67 -21.38,16.57 -16.35,6.85 -22.97,38.3 -14.33,5.4 -8.83,1 -20.54,12.87m-51.04 5.04l-5.02 -2.59 0 -15.32c24.13,-18.21 29.33,-34.97 53.61,-61.28 3.46,-16.46 1.87,-13.17 7.67,-30.65l7.66 -15.31m91.92 53.62c0,25.68 2.2,7.1 -7.67,22.99 6.87,2.91 13.73,6.16 20.5,9.58m86.83 -48.07l22.88 -45.78m24.5 9.98c-17.67,-16.06 1.23,-5.96 -24.5,-9.98l0 -30.64m-582.11 88.64l0 -58m-68.57 7.74c25.16,0.46 26.52,2.65 53.26,-7.74m513.16 0l0 -7.65m-107.23 0c-12.69,20.65 0.75,11.62 -22.97,15.31l0 -22.97m-349.86 83.52c12.51,-0.81 8.62,-0.45 28.17,-6.93l45.95 0c18.83,-6.77 13.14,-4.28 30.64,-7.66l0 -76.6m-137.86 -38.29c3.37,43.93 14.73,21.05 0,61.27l15.31 0c30.12,-0.65 18.91,1.11 45.96,-7.65 34.92,-0.77 41.61,0.64 61.28,-22.99m-114.9 -84.24c-10.91,28.12 -7.65,21.27 -7.65,53.61 -50.84,0 -70.22,9.11 -107.08,13.75m635.56 39.87c23.48,-27.82 10.92,-2.46 15.32,-30.64m-421.25 -7.66l0 15.31 15.31 0 0 7.66c31.13,16.65 34,19.28 61.27,45.95 15.34,5.33 30.62,10.02 45.95,15.34 15.9,-9.9 -2.7,-7.66 22.99,-7.66 -0.73,-33.77 -5.16,-39.6 -15.33,-68.94m417.19 4.16l-19.3 -11.1c-25.89,-2.8 -13.41,-0.44 -37.89,-8.39m-137.86 91.93l15.31 7.64c-7.38,19.53 4.22,7.95 -15.31,15.33 -20.47,-22.22 -12.38,-7.89 -30.65,-30.63 13.11,-21.75 11.34,-18.57 30.65,-38.3 28.89,17.73 4.13,7.32 38.28,15.31 19.53,-7.37 7.95,4.22 15.32,-15.31l-15.32 0c-26.26,-5.08 -14.46,0.5 -30.64,-15.33 13.11,-21.73 11.33,-18.56 30.64,-38.29m-130.2 7.65l0 38.31 22.97 7.66c28.35,-18.79 38.53,-40.88 61.28,-68.95m99.57 22.98c-14.92,14.92 -7.76,9.58 -22.98,15.33 -10.33,-25.58 12.91,-4.72 -30.64,-22.98 -9.89,-15.88 -7.67,2.7 -7.67,-22.98m-497.84 -45.96l0 15.33c31.48,16.84 56.36,35.51 84.25,61.26 16.46,3.46 13.18,1.89 30.65,7.67l0 -38.3m45.94 45.96c-26.99,-10.9 -6.34,4.58 -22.97,-38.31 23.03,-4.81 9.29,1.23 22.97,-15.3m314.03 30.63c-7.37,-19.52 4.22,-7.94 -15.31,-15.33 10.04,-19.34 5.5,-13.16 22.98,-30.62m-620.4 30.05l0 -37.71m-15.32 0l-8.03 3.08m766.3 42.88c-19.82,-34.34 -20.66,-18.16 -7.67,-53.62m-735.28 -38.3c-5.99,18.5 -7.93,27.93 -15.32,45.96l15.32 0c30.59,0 15.11,1.54 38.28,-7.66m474.89 0l7.66 -7.67m-76.6 15.33c-61.33,0 -22.01,6.46 -76.59,7.66l0 -61.27c-49.17,0 -77.42,11.84 -122.54,15.31 0,35.19 1.69,37.38 7.66,68.93 17.02,-3.22 27.77,-6.26 45.94,-7.65 30.8,-11.96 41.89,-7.67 76.59,-7.67 0,33.36 -2.15,30.99 7.66,61.28 16.27,-3.4 12.65,-1.2 30.65,-7.66l30.63 0c31.79,-10.3 34.14,-7.67 68.94,-7.67 -3.41,-16.24 -1.19,-12.63 -7.66,-30.63 -0.93,-42.32 -10.8,-26.57 0,-61.28m-505.51 -30.63l0 15.32 30.63 0c2.93,15.1 4.74,23.2 7.65,38.3l30.65 0c35.33,-12.22 19.86,-0.85 38.31,-22.99m68.92 -7.65c-13.88,9.29 -23.81,15.38 -38.3,22.97 -27.81,-23.47 -2.44,-10.91 -30.62,-15.32l0 -22.96m306.36 15.31l-7.65 -22.98m99.56 15.32l0 15.31c10.73,6.52 1.45,-6.95 15.32,15.32 2.46,-19.73 23.71,-5.08 -15.32,-30.63 -4.22,-8.78 -11.1,-21.86 -15.32,-30.64m-283.38 38.3c0,-30.58 1.52,-15.12 -7.67,-38.3m-122.55 22.99l30.65 0 0 -22.99m635.71 15.32c-21.03,-21.02 -23.75,-22.16 -38.29,-45.95m-674.03 22.98l16.69 29.93 29.27 0.71c-0.76,-35.22 -1.34,-31.22 -15.31,-61.29m291.05 7.67c8.75,27.04 7,15.84 7.65,45.95l45.97 0c26.19,-10.17 14.45,-7.66 45.95,-7.66 22.48,-7.45 14.09,-5.8 38.29,-7.66l0 -45.95m-459.56 7.65c-27.09,5.4 -20.39,0.72 -53.61,0m314.02 15.33l0 -22.98m-130.19 -15.32c-23.19,9.2 -7.72,7.65 -38.31,7.65m643.38 68.94c29.93,27.63 68.25,44.74 97.3,70.42m-23.92 29.2c-26.11,0.47 -16.71,-0.84 -42.74,7.62l-53.61 0 0 15.3 -45.96 0c-23.49,-14.05 -34.49,-23.51 -61.29,-30.63 -3.69,-23.72 5.34,-10.27 -15.3,-22.97 15.78,-29.51 31.79,-49.68 53.61,-76.6 7.69,-39.75 5.36,-11.45 0,-38.29l30.65 0c13.04,-30.85 5.94,-19.24 30.62,-45.96m53.62 38.29c-20.02,-13.09 -34.26,-22.59 -53.62,-38.29 2.47,-15.78 2.23,-15.64 7.67,-30.64m-68.94 -337l45.96 0c35.53,-20.51 32.84,-11.27 68.93,-22.98l30.64 0c11.31,34.92 7.66,53.45 7.66,91.91 -24.37,75.16 -69.2,196.64 -84.25,268.07 23.71,-3.7 10.26,5.34 22.97,-15.32m-91.91 -291.04c-18.72,21.78 -4.32,20.1 -38.31,7.65 3.8,-38.44 -0.14,-34.49 38.31,-38.29l0 30.64c22.15,11.48 11.47,0.83 22.98,22.99m91.91 474.86c-29.82,-2.3 -28.06,-3.43 -53.62,-15.32 0.52,-23.87 3.58,-32.03 7.67,-53.62l22.97 0 22.98 -53.62c25.22,-19.02 40.57,-45.77 53.61,-76.58m-451.89 61.26l0 -22.97m-99.58 0c-30.76,11.95 -30.49,3.38 -61.26,15.32m-45.97 61.27c0,30.59 1.55,15.12 -7.65,38.3l30.65 0 30.62 0 0 -45.95c-30.77,0 -15.15,-1.33 -38.29,7.65l-15.33 0c-33.06,-10 -12.88,-10 -45.95,0l-30.62 0 0 -53.62 15.3 0 0 -22.97m-160.84 0c-26.2,10.18 -14.46,7.66 -45.96,7.66m719.96 38.3l30.66 0c-7.89,-18.67 -20.25,-36 -30.66,-53.61m-107.21 30.62c-25.22,1.99 -14.74,-0.14 -38.3,7.67 -7.99,-20.59 -7.33,-25.38 -15.32,-45.96m-329.35 7.67c-15.88,9.87 2.71,7.65 -22.98,7.65l-7.65 -22.98m-145.54 22.98c7.83,23.57 5.68,13.09 7.67,38.29 12.8,39.47 -2.68,31.59 22.98,53.62 22.27,-30.7 0.97,-14.23 30.63,-22.97 3.84,-24.51 1.46,-18.42 0,-30.65l30.65 0c18.26,-21.27 -3.79,-14.4 38.29,-15.32l0 -45.95m76.59 38.3l0 -38.3 22.98 0m-84.25 0c0,-30.59 1.55,-15.1 -7.65,-38.29m61.25 38.29l0 0c-2.36,-30.76 -4.46,-26.6 -15.3,-53.61m183.81 15.32l0 -45.95m314.03 61.26c-0.9,42.07 5.95,20.04 -15.33,38.31 -16.24,-3.42 -12.63,-1.19 -30.61,-7.67l-61.29 -61.27c-31.71,-15.45 -40.44,-26.71 -68.93,-45.96m-268.06 30.64c-22.38,8.69 -30.7,7.88 -53.62,15.32 -40.16,0 -26.6,-7.21 -45.95,15.32l-23 0c0,-33.16 3.73,-31.95 -7.65,-61.28m-114.89 38.29c-10.82,-34.5 -13.66,-4.59 7.65,-38.29m-53.61 99.57l0 30.64c-2.81,1.1 -5.35,2.05 -7.66,2.88m168.51 -41.18c-14.24,9.12 -17.08,12.27 -30.64,22.99l-30.64 0c-27.04,8.76 -15.83,7 -45.96,7.65l-7.65 0 0 -84.26c27.75,2.75 21.9,2.98 45.97,15.32l30.61 0c42.16,14.58 34.24,-2.07 38.31,38.3l22.98 7.66 15.32 0 30.63 0 0 15.33c10.03,8.18 7.93,2.64 15.33,22.97l15.31 0 53.62 0 0 45.96c30.28,-0.67 33.03,-5.49 61.26,-7.66 30.3,-9.82 27.93,-7.66 61.29,-7.66l0 -53.61c26.29,2.05 13.81,-0.28 38.29,7.65 15.21,-7.23 22.08,-9.93 38.3,-15.32l45.95 0 0 -53.62c-9.32,-28.73 -14.17,-31.27 0,-53.61 8.17,-10.02 2.64,-7.93 22.97,-15.31m482.53 30.64c12.01,2.27 22.21,4.31 30.94,6.11m-681.97 -6.11l0 -53.61m-291.06 38.28l38.31 0c-1.99,-25.79 -5.68,-27.83 -7.66,-53.61m206.8 84.25c20.55,-8.43 31.04,-11.06 53.61,-15.31l7.66 0c28.12,-10.92 21.27,-7.66 53.62,-7.66 25.26,-8.2 47.82,-14.7 76.6,-15.33 -7.64,-40.39 -19.58,-30.24 7.65,-53.61m-601.98 55.03l28.09 12.85c17.62,2.44 28.38,5.49 45.41,8.72 0,-44.57 0.18,-58.13 -7.66,-99.57m405.93 45.96l-15.32 0c-7.99,-20.58 -7.31,-25.38 -15.31,-45.96 22.48,-7.46 14.09,-5.8 38.3,-7.67m-30.64 153.19l15.31 0c11.39,29.32 7.66,28.1 7.66,61.27l-53.62 0c-0.64,-30.12 1.11,-18.9 -7.66,-45.96 -0.65,-30.11 1.12,-18.9 -7.65,-45.95 -38.34,2.96 -30.31,12.52 -68.92,0 0,-61.84 -7.67,-23.12 -7.67,-91.91 47.12,-22.41 41.4,-10.27 107.23,-22.97l0 -30.65m-252.75 15.32c-26.21,10.17 -14.47,7.66 -45.95,7.66 -31.81,10.31 -34.15,7.67 -68.94,7.67 -1.98,-25.78 -5.68,-27.83 -7.66,-53.61m352.31 15.31c-11.48,-22.16 -0.81,-11.48 -22.96,-22.99m-61.28 38.3c-13.99,-30.07 -14.55,-26.06 -15.33,-61.27 -51.23,0 -76.81,14.33 -122.53,15.32 0,32.35 3.26,25.49 -7.66,53.61 14.82,19.52 13.04,16.37 15.31,45.96l30.64 0c27.06,-8.77 15.84,-7 45.95,-7.66 28.38,-9.21 21.91,-7.66 53.62,-7.66l0 -38.3c21.71,-14.37 19.62,-16.54 38.29,-30.62 37.68,31.68 3.34,19.16 45.95,15.31 15.88,9.89 -2.69,7.65 22.99,7.65 1.57,-24.45 3.53,-32.44 -7.67,-61.27m-61.27 -15.3l0 -7.69m-38.29 -76.58c-4.7,28.21 -2,4.69 0,38.31 21.03,25.91 11.86,20.77 38.29,38.27 19.54,-7.36 7.95,4.24 15.33,-15.3m0 -15.32l0 15.32c19.52,-7.38 7.94,4.2 15.31,-15.32m-410.99 25.85c8.4,-8.24 1.95,5.67 5.05,-25.85m375.3 68.93c15.04,19.92 0.48,11.15 22.99,15.31 -1.35,-25.89 -11.41,-5.12 38.28,-30.63 0,-33.17 3.74,-31.95 -7.66,-61.26m-30.62 0l0 -7.67m176.15 76.59c-3.4,-16.26 -1.18,-12.63 -7.65,-30.65 0,-32.34 3.26,-25.49 -7.67,-53.61m-375.3 0c0,85.13 3.79,49.04 7.67,99.58l-122.55 15.33 -22.98 -99.57 122.54 -15.34m191.48 68.95c39.94,11.77 18.08,2.56 15.32,22.97 -25.59,24.02 -18.55,28.57 -22.98,-15.32l-38.29 0c0,-39.97 -6.9,-57.5 -7.67,-91.91m-268.06 22.98c20.02,-50.47 0,-19.47 0,-91.9l122.54 -15.34c3.09,39.32 18.75,64 7.66,99.57l15.32 0c16.27,-3.4 12.64,-1.19 30.64,-7.64l30.65 0c22.91,-7.45 31.23,-6.64 53.61,-15.33m99.57 15.33c9.88,-15.9 7.65,2.69 7.65,-22.98m-30.64 53.61l15.33 0 15.31 0 22.97 -7.65 0 -45.96 -22.97 0c-30.57,0 -15.11,-1.55 -38.29,7.65m-30.64 -38.29l-15.33 -7.66m727.64 107.23c-15.61,-19.77 -18.46,-25.62 -30.65,-45.95 -32.7,-29.49 -10.69,-22.05 -53.6,-22.98 -1.4,-18.19 -4.46,-28.94 -7.66,-45.97m-628.06 -7.64l-7.67 15.31 -7.65 -15.31m68.94 76.59c7.37,19.52 -4.21,7.93 15.32,15.31l0 -15.31 -15.32 0c-19.54,-7.38 -7.96,4.19 -15.32,-15.33l-30.64 0c-15,5.43 -14.87,5.19 -30.65,7.66l-7.64 -7.66c-1.02,-46.82 -22.63,-47.45 15.31,-61.26l15.32 0c0,-28.57 -0.55,-14.13 -7.67,-30.65 -9.96,18.29 -3.4,2.73 -7.65,22.98l-15.31 0c-5.53,-26.35 2.17,-6.61 -15.33,-30.65m781.25 30.65c-22.38,8.68 -30.69,7.89 -53.61,15.31l-53.62 0c12.79,-14.14 29.18,-32.05 38.28,-53.6m-995.69 114.88c-1.81,8.9 -3.26,11.77 -4.12,13.05m-0.17 5.11c0.75,3.14 2.13,8.92 4.29,20.14 34.36,-2.64 14.94,6.72 38.3,-15.32 -10.89,-6.55 -27.42,-16.41 -38.3,-22.98l-3.33 -5.92m33.97 -116.62l45.96 0c31.69,-10.29 39.01,-3.7 68.94,-15.33m382.95 153.18l30.63 0 0 -61.26c54.18,0 82.91,-14.29 130.21,-15.33l-15.32 -91.91m-382.95 -68.92c-22.25,21.08 -15.33,4.61 -15.33,45.95 10.31,31.8 7.66,34.13 7.66,68.92l-122.55 15.34c-5.99,-18.51 -7.92,-27.94 -15.3,-45.97 12.45,-24.48 3.11,-5.36 0,-45.95 -30.3,9.82 -27.93,7.66 -61.28,7.66 -30.3,9.82 -27.91,7.67 -61.28,7.67m107.23 -137.88c-20.74,19.57 -51.77,19.38 -99.41,26.66m-13.19 75.14c2.29,11.11 4.35,22.69 5.37,36.08 0.66,30.11 -1.11,18.9 7.66,45.95l0 53.62c-10.71,4.15 -20.49,6.93 -30.51,9.22m1133.43 -24.56c-16.25,3.41 -12.63,1.19 -30.62,7.67l-38.3 0 0 -38.29 -68.95 0c-27.22,-21.5 -19.03,-20.32 -53.61,-22.99 -2.05,-26.29 0.29,-13.79 -7.65,-38.29l0 -38.3m-405.94 15.32c0.84,38.39 -3.29,21.38 15.33,53.61l53.6 0c33.01,-10.71 40.49,-7.66 76.59,-7.66 0,-63.25 -14,-55.03 -15.31,-114.88 -36,2.83 -107.2,12.93 -137.88,30.63 2.08,26.31 -0.27,13.8 7.67,38.3l30.63 0c27.05,-8.78 15.84,-6.99 45.97,-7.66m-183.84 76.6c84.38,0 40.9,-15.33 114.9,-15.33l15.32 107.23c-42,0 -93.03,14.51 -130.22,15.33 0,-66.19 -22.96,-124.15 -22.96,-206.8m643.36 7.66c13.79,34.72 7.21,50.93 22.99,99.57 42.08,-0.92 144.09,-24.36 183.81,-30.65 3.42,-0.54 8.59,-1.18 15.14,-1.93m-283.21 -59.34c22.43,-4.69 10.03,2.65 22.99,-15.31 22.47,7.45 14.07,5.8 38.28,7.66l0 -22.98m-651.02 15.32c-32.03,12.43 -62.6,7.66 -99.57,7.66 -12.7,-20.65 0.74,-11.63 -22.98,-15.33m513.16 -7.65l0 -38.3m-490.18 15.32l0 -22.98m750.59 7.66l0 38.3c-41.62,7.86 -51.04,-1.39 -61.27,30.63l-45.95 0c-11.4,-29.35 -11.59,-54.9 -22.98,-84.23m-651.04 7.64c0.52,23.87 3.59,32.04 7.67,53.61l0 30.64c-36.41,11.81 -82.26,15.32 -122.54,15.32 -7.84,-41.43 -7.67,-55 -7.67,-99.57 29.58,0 15.03,-1.47 30.63,-7.64m222.13 30.62c-4.85,-12.2 -10.48,-26.09 -15.33,-38.3m-107.22 15.32l22.98 0c15.88,-9.88 -2.72,-7.64 22.97,-7.64m191.48 0c8.69,22.36 7.88,30.68 15.31,53.6l-122.53 15.32 -7.66 0 0 -38.3c18.01,-7.38 27.45,-9.31 45.94,-15.32l30.64 0c23.04,-13.58 13.01,-9.99 38.3,-15.3l0 -45.98c-34.8,0 -37.15,-2.65 -68.94,7.65 -39.37,0 -49.73,-6.38 -61.27,30.65l-30.62 0m321.68 -30.65c-2.38,12.9 -3.55,3.83 0,23m53.61 -7.66c-12.08,-37.84 -13.29,-22.93 -53.61,-15.34l-7.66 -22.97m-421.26 53.62c7.38,19.53 -4.21,7.95 15.32,15.32l7.65 0 7.67 0c3.85,-10.21 6.77,-19.76 7.65,-22.97l99.57 -15.32 -15.32 -91.91c32.81,-13.46 97.48,-22.98 130.22,-22.98 2.82,36.86 14.47,53.02 15.31,91.91 30.78,0 15.15,1.32 38.31,-7.67m681.66 -7.65c-5.45,-14.99 -5.21,-14.86 -7.66,-30.63m-38.3 22.97c-28.56,27.96 -103.34,82.73 -137.87,91.91 -17.61,-45.4 -18.93,-101.79 -30.62,-137.86 -33.07,10 -12.9,10 -45.96,0 -30.28,9.8 -27.92,7.65 -61.28,7.65 0,72.15 7.66,39.32 7.66,114.91l-53.61 0c-32.01,10.37 -44.59,4.93 -76.6,15.3 -56.4,0 -34.07,7.67 -122.54,7.67 -9.71,-24.46 -6.99,-7.33 -7.66,-38.3 -10.97,-33.8 -18.43,-35.43 7.66,-45.97 26.56,-30.91 40.57,-17.28 76.59,-22.96l99.57 -22.99m-352.33 -99.58l0 15.34c-42.45,0 -90.5,2.44 -130.21,15.32 1.41,18.16 4.44,28.92 7.66,45.95l-122.54 22.97m942.08 22.99c-26.33,-17.61 -13.7,-4.78 -30.65,-30.65l-45.93 0m-206.81 -53.61l0 53.61c-30.29,9.83 -27.9,7.66 -61.27,7.66l0 -22.97m252.75 -22.98c-19.62,12.19 -3.37,12.19 -22.97,0m114.88 15.33l-29.94 16.67c1.38,-27.67 -0.98,-15.16 6.97,-39.67m-367.65 -84.25c15.88,-9.88 -2.71,-7.64 22.98,-7.64 30.28,-9.83 27.91,-7.67 61.27,-7.67 7.23,15.22 9.94,22.07 15.31,38.29 1.98,25.79 5.7,27.83 7.67,53.62 83.83,0 60.07,-6.63 107.24,-7.65 8.77,27.04 7,15.83 7.66,45.95 38.86,0.84 55.02,12.49 91.91,15.31 -0.93,-42.05 5.93,-20.03 -15.33,-38.29l0 -7.67c-25.68,0 -7.09,-2.21 -22.97,7.67l-15.32 0m168.5 38.29c30.03,-8.15 10.58,2.56 38.3,-22.96 -4.75,-22.62 -0.5,-23.1 0,-30.65m-45.95 0l-22.99 -15.31m7.66 45.96c4.02,-7.76 11.3,-22.89 15.33,-30.65 30.02,-8.15 10.58,2.55 38.28,-22.97m-160.84 -30.65l0 0c2.46,15.78 2.22,15.65 7.65,30.65 40.77,7.69 10.84,10.93 45.97,0m30.63 7.66c-15.89,-9.89 2.72,-7.66 -22.99,-7.66m-620.38 99.55c23.48,27.84 10.91,2.45 15.33,30.64 70.77,0 32.17,-7.65 91.89,-7.65 0,-41.58 -15.32,-102.8 -15.32,-153.19 65.71,-1.43 113.43,-22.98 168.51,-22.98 -6.26,23.05 -3.33,15.46 -15.33,38.29m-543.8 45.96c4.09,21.59 7.15,29.76 7.67,53.62 3.41,16.26 1.19,12.66 7.67,30.64l0 68.93 -7.67 0c-31.79,10.31 -34.14,7.68 -68.94,7.68 -19.04,-21.54 2.01,-19.88 -38.29,-7.68 -12.4,-19.54 -7.66,-23.13 -7.66,-53.62 -10.12,-31.2 -22.98,-95.22 -22.98,-130.19l114.89 -22.98m-132.42 24.21l9.87 -1.23 0 -30.01m107.24 -146.16c10.7,33.02 7.65,40.48 7.65,76.59 10.72,33.01 7.66,40.48 7.66,76.6 18.61,32.26 14.48,15.21 15.31,53.6 39.38,-0.85 72.89,-14.39 114.91,-15.3 0,-57.48 -22.97,-145.37 -23,-145.54 8.61,-34.74 0.87,-21.67 0,-61.26 -44.09,0 -78.42,14.35 -122.53,15.31 -23.76,7.71 -40.6,11.54 -56.95,13.44m1121.58 147.39c4.95,-4.02 8.95,-7.21 12.49,-9.93m-112.07 55.89c20.64,12.7 11.62,-0.74 15.32,23l15.32 0c15.19,23.84 0.93,9.4 22.98,22.96l0 15.33 -38.3 15.32 0 7.65c27.05,8.78 15.84,7 45.96,7.66 10.01,4.66 31.65,12.8 55.55,20.95m-109.17 -174.14l45.96 -30.62m-76.59 0l15.32 -7.67m-53.61 0l7.66 7.67m-390.63 -15.33c-9.89,-15.89 -7.66,2.71 -7.66,-22.98m160.84 -30.64l0 15.32 -38.29 0c-30.12,0.66 -18.92,-1.1 -45.96,7.66l-30.63 0c-18.83,6.78 -13.13,4.28 -30.65,7.66m536.16 30.64l7.39 0m-38.03 22.99l-15.32 -15.32c3.62,-17.44 19.19,6.8 -15.33,-30.64 0,-29.6 -1.45,-15.03 -7.65,-30.64m-582.1 30.64c-9.2,-23.19 -7.65,-7.73 -7.65,-38.31m-137.88 15.32c-14.17,-36.5 -15.31,-57.77 -15.31,-99.55l130.2 -15.34c0,41.89 6.89,64.13 7.67,99.57m605.07 0l-15.32 -15.31m53.62 107.22c-27.93,22.65 -26.52,14.87 -45.96,45.97l-15.32 0 -7.66 22.96 -7.65 0c-4.22,-8.77 -11.11,-21.86 -15.32,-30.62l7.64 0c-9.18,-28.39 -7.64,-21.92 -7.64,-53.63 -33.58,7.72 -32.94,14.25 -30.63,-7.64l30.63 0c9.9,-34.47 23.48,-42.86 53.61,-61.28l0 -7.67c21.86,-4.12 40.6,-8.6 61.28,-15.31l1.44 0m12.17 66.52c-1.4,2.53 -3.28,5.8 -5.95,10.07 -17.47,17.46 -11.29,12.93 -30.64,22.99l0 7.64c19.35,10.05 13.17,5.52 30.64,22.97l-15.33 15.34c7.83,8.45 7.67,-13.41 7.67,22.97 11.62,4.26 19.09,6.4 24.15,7.06m-299.89 -167.91c10.92,28.13 7.65,21.27 7.65,53.62 9.21,28.39 7.66,21.92 7.66,53.61 6.78,18.83 4.29,13.14 7.68,30.65 41.14,-0.91 16.47,5.65 45.95,-15.34l-30.65 -183.8m-45.95 7.66l0 -53.61m-528.48 -22.98l0 61.26c-36.12,0 -43.58,-3.04 -76.59,7.67l-45.97 0 -16.33 -37.83 -29.62 -31.1m811.88 7.65c31.79,-10.31 34.13,-7.65 68.94,-7.65m-298.71 -7.68l0 -7.65m160.83 38.31c15.21,-7.25 22.08,-9.96 38.32,-15.33l30.62 0 0 -53.61c25.78,-1.98 27.83,-5.68 53.62,-7.67m-907.56 -10.35c1.41,6.11 2.66,12.16 3.77,18.02m-17.94 3.93c5.93,-1.46 11.9,-2.79 17.94,-3.93 36.24,-11.76 64.11,-14.15 99.57,-30.64m291.05 0c-19.06,6.18 -34.55,9.15 -53.62,15.32 -0.9,13.97 -1.14,17.42 0,38.3 -58.69,19.02 -76.51,22.98 -130.2,22.98 -10.91,-28.12 -7.67,-21.26 -7.67,-53.63 -41.81,3.22 -73.05,19.77 -114.89,22.99 -20.33,12.18 -26.17,15.01 -45.95,30.64l-45.96 0 -31.17 14.25 -12.17 0.43m793.95 61.91l0 53.6c-30.11,0.67 -18.9,-1.12 -45.95,7.66l-61.28 0c-10.17,-26.2 -7.65,-14.46 -7.65,-45.95l107.22 -15.31 7.66 0c23.56,-7.82 13.09,-5.67 38.29,-7.66l0 -45.95 -45.95 0c-10.17,-26.22 -7.65,-14.48 -7.65,-45.96l114.88 -22.98 0 -45.96m-252.75 91.92l22.98 0c0,41.06 7.66,58.49 7.66,99.57 -44.2,0 -98.41,6.79 -137.87,22.97 8.77,27.03 7,15.84 7.65,45.95l-15.31 0 -30.64 0c-31.78,10.31 -34.13,7.67 -68.93,7.67l0 61.26c-30.17,11.71 -34.98,7.67 -68.92,7.67 -30.3,9.82 -27.92,7.64 -61.29,7.64 -9.19,-23.17 -7.66,-7.69 -7.66,-38.29 -9.82,-30.29 -7.66,-27.91 -7.66,-61.27 30.12,-0.65 18.91,1.11 45.95,-7.65l30.66 0c27.02,-8.78 15.84,-7.01 45.95,-7.67l15.32 0c51.38,-21.06 52.23,-10.87 114.88,-22.98 0,-67.4 -7.66,-29.55 -7.66,-99.56l114.89 -15.31c0,-32.37 -3.26,-25.51 7.66,-53.63l22.98 0 0 38.3 53.61 0c27.03,-8.77 15.84,-7 45.96,-7.65l0 -45.96c-44.01,0 -68.53,7.66 -107.23,7.66l0 -38.3m-145.53 68.94l0 45.95c-40.45,0.88 -75.4,15.32 -122.55,15.32 0,-32.36 -3.25,-25.51 7.67,-53.61 75.57,0 42.76,-7.66 114.88,-7.66 15.2,-7.24 22.07,-9.95 38.31,-15.32 33.22,-0.72 41.09,-7.67 76.57,-7.67 0.9,-41.13 -5.66,-16.49 15.33,-45.95m206.79 7.66l-91.9 15.32c-1.4,-18.19 -4.45,-28.93 -7.67,-45.95 -47.79,0 -52.26,2.63 -91.9,22.97l-15.32 0 -7.66 -61.28c-101.34,19.15 -316.07,97.79 -398.29,99.58l0 -30.64c-36.87,2.83 -53.01,14.46 -91.9,15.32 -9,-23.2 -20.71,-65.02 -22.9,-90.97m160.76 52.67c45.75,-8.65 110.2,-23.42 153.19,-38.29 35.71,-0.77 47.71,-6.31 76.59,-22.98m337 38.3c-6,-18.52 -7.93,-27.94 -15.31,-45.96 -26.31,2.05 -13.8,-0.29 -38.31,7.66m-520.82 -38.31c27.33,0 12.98,0.83 30.64,-7.64m-153.17 38.29c-10.05,1.57 -13.66,2.04 -18.8,3.57m133.68 -103.14c0.69,32.1 6.96,36.82 7.65,68.92 -1.98,25.22 0.16,14.74 -7.65,38.31 8.67,25.05 13.15,32.98 15.31,61.27 -20.55,8.43 -31.05,11.06 -53.62,15.32 -32.81,-70.61 -18.96,-89.6 -22.96,-114.9 -4.85,-14.94 -6.72,-20.23 -7.4,-26.51m51.56 -37.95c2.75,-1.31 5.85,-2.79 9.45,-4.46m375.3 22.97c-5.38,-16.21 -8.09,-23.07 -15.32,-38.29m-76.59 84.24c-27.28,13.58 -26.63,14.13 -30.64,38.31 35,-6.61 45.77,-5.19 76.59,-22.97 -14.73,-45.48 -14.74,-60.08 15.32,-68.95l0 -30.63m7.67 -30.63c8.48,17.66 7.65,3.31 7.65,30.63l-15.32 0c-8.5,-17.67 -7.66,-3.32 -7.66,-30.63m-53.61 7.66c-8.49,-17.67 -7.67,-3.31 -7.67,-30.63m245.1 153.18c21.51,-16.98 49.28,-31.6 77.8,-46.78m-246.29 -107.36l0 23.93 -15.33 0c-4.49,-13.88 -8.07,-22.26 -9.28,-27.46m-328.15 72.08l0.43 1.33 7.66 0c43,-13.95 231.29,-66.1 268.06,-68.92 8.03,-3.3 14.35,-5.51 20.53,-7.48m79.05 183.63c-21.24,-29.84 -21.08,-19.03 -7.67,-53.61 -24.61,-21.15 -30.88,-26.43 7.67,-30.65 3.75,48.92 35.36,53.89 0,84.26 32.85,20.85 99.66,-21.98 145.52,-22.97 14.91,14.88 9.56,7.74 15.31,22.97 -32.13,6.07 -27.91,4.11 -53.6,22.98 15.65,33.36 7.53,22.97 53.6,22.97 28.39,-9.21 21.93,-7.65 53.62,-7.65 2.66,34.42 5.46,18.62 0,45.95l38.3 0c23.19,-9.2 7.72,-7.66 38.29,-7.66 27.05,-8.76 15.83,-7.02 45.96,-7.66l3.65 -1.3m-463.2 951.05c-25.06,10.79 -5.59,10.79 -30.64,0 22.14,-9.55 2.79,-5.48 30.64,-7.65l0 7.65 15.32 0m176.16 22.97c-7.39,-18.01 -9.33,-27.46 -15.31,-45.96 17.64,-8.48 3.29,-7.65 30.63,-7.65"/>
  <path class="fil3" d="M1512.37 322.84c226.66,43.85 387.03,178.13 481.59,402.5 85.53,203.7 100,450.82 43.79,741.45 -64.38,332.82 -191.62,577.42 -382.06,733.27 -159.73,129.99 -337.79,176.23 -533.21,138.43 -226.7,-43.84 -386.98,-178.57 -481.37,-403.82 -85.53,-203.7 -100.09,-450.38 -44.03,-740.13 64.37,-332.81 192.53,-577.71 384.72,-734.15 159.59,-129.08 336.73,-175.04 530.57,-137.55zm-18.41 94.08c-188.77,-36.52 -353.13,23.74 -494.05,181.07 -127.74,142.64 -217.45,348.72 -269.58,618.2 -59.57,307.9 -43.35,556.18 49.05,744.82 77.36,157.25 197.84,251.92 361.06,283.48 189.61,36.68 354.5,-23.95 495.58,-182.22 126.9,-142.81 216.17,-348.98 268.4,-618.97 59.65,-308.38 43.78,-556.06 -48.02,-743.12 -76.96,-157.17 -197.51,-251.36 -362.44,-283.26z"/>
  <g id="_1699609986176">
   <g>
    <path class="fil4" d="M277.74 1583.46c60.1,-149.24 163.05,-295.43 258.4,-416.01 51.63,-61.42 100.62,-112.99 162.51,-161.64 40.07,-30.49 83.8,-59.8 133.29,-65.01 10.1,-0.59 18.09,0.18 27.45,4.96 8.08,4.58 12.87,9.78 18.19,17.95 14.67,25.2 19.12,55.58 22.27,84.72 2.5,30.16 2.76,58.76 2.17,88.95 -1.97,71.83 -8.12,142.39 -14.62,213.74 -10.7,114.26 -22.36,226.54 -22.78,341.85 0.73,49.86 3.3,93.83 14.28,142.61 5.47,21.86 11.28,39.22 21.36,59.09 10.64,19.75 20.8,33.2 37.34,47.12 35.22,27.45 65.28,38.19 107.63,41.31 46.96,1.58 83.18,-8.02 126.9,-25.41 119.36,-51.29 217.62,-134.35 315.65,-223.96 306.75,-291.12 646.83,-709.84 885.62,-1074.62 265.55,-442.75 -717.32,755.13 -740.22,780.39 -67.73,73.81 -134.93,143.82 -206.68,213.03 -88.19,82.59 -179.86,162.96 -286.84,213.2 -31.36,13.2 -59.13,22.09 -93.08,21.96 -24.41,-1.21 -41.2,-6.23 -61.87,-21.47 -6.4,-5.09 -10.26,-10.55 -14.45,-17.93 -6.37,-11.75 -10.17,-23.08 -13.72,-36.14 -10.13,-39.88 -12.89,-78.81 -14.39,-119.89 -2.79,-111.49 6.09,-222.54 13.3,-333.43 6.75,-105.43 14.35,-212.06 2.48,-317.75 -5.73,-42.58 -13.37,-78.23 -36.31,-113.98 -12.11,-17.22 -23.47,-27.72 -41.32,-36.78 -18.93,-8.54 -34.07,-10.26 -54.13,-8.36 -60.29,9.36 -107.3,41.85 -155.53,80.85 -57.32,48.88 -103.37,99.66 -151.66,159.34 -4.12,5.14 -8.2,10.37 -12.25,15.58 -115.67,152.58 -339.57,650.53 -228.99,445.73z"/>
   </g>
   <path class="fil2" d="M249.25 1639.79c130.73,-337.74 419.9,-703.04 580.67,-719.54 226.51,-23.27 -40.55,851.93 129.39,986.71 199.61,158.31 643.27,-271.61 1460.24,-1362.45"/>
   <g>
    <path class="fil4" d="M2421.12 539.75c-30.97,46.32 -179.11,153.53 -219.37,182.65 -208.28,145.12 -556.4,324.12 -718.55,450.22 -89.22,98.17 246.98,-65.06 269,-77.38 216.59,-127.17 424.83,-281.85 610.37,-459.24 3.77,-3.88 109.37,-123.85 58.55,-96.25z"/>
   </g>
   <path class="fil2" d="M2430.28 533.61c-138.46,180.06 -695.38,559.49 -956.5,667.41"/>
   <g>
    <path class="fil4" d="M2423.88 538.96c-53.34,91.82 -85.56,131.89 -139.45,243.01 -89.79,200.35 -243.02,634.33 -254.96,858.27 10.36,139.8 123,-285.64 127.94,-303.2 66.62,-243.72 128.83,-462.51 230.34,-693.04 7.89,-16.82 72.8,-128.15 36.13,-105.04z"/>
   </g>
   <path class="fil2" d="M2433.34 531.84c-148.5,195.41 -305.65,741.96 -389.64,1139.78"/>
  </g>
  <path class="fil1" d="M478.21 168.73l1678.57 0c174.46,0 317.2,142.74 317.2,317.21l0 1689.58c0,174.46 -142.74,317.2 -317.2,317.2l-1678.57 0c-174.46,0 -317.2,-142.74 -317.2,-317.2l0 -1689.58c0,-174.47 142.74,-317.21 317.2,-317.21zm16.1 22.31l1646.36 0c171.12,0 311.11,139.99 311.11,311.11l0 1657.16c0,171.12 -139.99,311.11 -311.11,311.11l-1646.36 0c-171.12,0 -311.11,-139.99 -311.11,-311.11l0 -1657.16c0,-171.12 139.99,-311.11 311.11,-311.11z"/>
  <g id="_1699609970912">
   <g>
    <path class="fil5" d="M277.74 1508.63c60.1,-149.24 163.06,-295.43 258.4,-416 51.59,-61.4 100.65,-113.04 162.51,-161.66 40.09,-30.5 83.78,-59.78 133.29,-65.01 10.19,-0.6 18.02,0.18 27.44,4.96 8.08,4.57 12.89,9.78 18.2,17.95 14.68,25.19 19.12,55.59 22.27,84.72 2.51,30.17 2.75,58.76 2.17,88.96 -1.97,71.84 -8.13,142.37 -14.62,213.73 -10.69,114.25 -22.38,226.57 -22.78,341.87 0.73,49.81 3.3,93.87 14.28,142.6 5.44,21.84 11.31,39.26 21.35,59.1 10.66,19.75 20.79,33.18 37.34,47.12 35.2,27.43 65.31,38.2 107.64,41.29 46.92,1.61 83.23,-8.03 126.9,-25.4 119.39,-51.32 217.6,-134.34 315.65,-223.96 306.73,-291.11 646.84,-709.87 885.62,-1074.62 265.55,-442.75 -717.32,755.12 -740.23,780.39 -67.72,73.8 -134.93,143.82 -206.67,213.03 -88.16,82.53 -179.91,163.02 -286.84,213.19 -31.36,13.22 -59.13,22.1 -93.08,21.97 -24.37,-1.18 -41.25,-6.27 -61.88,-21.47 -6.35,-5.01 -10.31,-10.63 -14.45,-17.93 -6.39,-11.78 -10.13,-23.05 -13.72,-36.14 -10.14,-40.05 -12.84,-78.64 -14.38,-119.89 -2.77,-111.49 6.08,-222.54 13.3,-333.43 6.74,-105.44 14.35,-212.07 2.48,-317.76 -5.73,-42.57 -13.37,-78.24 -36.31,-113.98 -12.11,-17.19 -23.47,-27.75 -41.32,-36.77 -18.88,-8.55 -34.12,-10.27 -54.13,-8.37 -60.31,9.37 -107.28,41.84 -155.53,80.85 -57.32,48.88 -103.37,99.66 -151.65,159.34 -4.14,5.09 -8.24,10.4 -12.26,15.59 -115.64,152.54 -339.59,650.54 -228.99,445.73z"/>
   </g>
   <path class="fil2" d="M249.25 1564.96c130.73,-337.74 419.9,-703.04 580.67,-719.55 226.51,-23.26 -40.55,851.94 129.39,986.72 199.61,158.3 643.27,-271.62 1460.24,-1362.45"/>
   <g>
    <path class="fil5" d="M2421.12 464.91c-30.97,46.32 -179.12,153.53 -219.37,182.65 -208.17,145.02 -556.58,324.23 -718.55,450.23 -89.22,98.18 246.98,-65.07 269.01,-77.39 215.83,-126.48 425.68,-282.67 610.35,-459.24 3.9,-4 109.32,-123.82 58.56,-96.25z"/>
   </g>
   <path class="fil2" d="M2430.28 458.77c-138.46,180.06 -695.38,559.5 -956.5,667.42"/>
   <g>
    <path class="fil5" d="M2423.75 463.94c-55.12,90.77 -88.11,130.2 -144.15,240.26 -93.68,198.61 -255.28,629.42 -271.58,853.14 7.65,139.97 128.53,-283.18 133.81,-300.65 71.16,-242.14 137.95,-460.28 243.75,-688.43 8.22,-16.67 75.29,-126.71 38.17,-104.32z"/>
   </g>
   <path class="fil2" d="M2433.34 457.01c-152.27,192.49 -320,735.87 -411.7,1131.99"/>
  </g>
 </g>
</svg>
